<mxfile host="app.diagrams.net" modified="2023-06-08T15:43:43.159Z" agent="Mozilla/5.0 (Macintosh; Intel Mac OS X 10_15_7) AppleWebKit/537.36 (KHTML, like Gecko) Chrome/114.0.0.0 Safari/537.36" version="21.3.7" etag="3YRSS7fD6jv89Ajg69cT" type="github">
  <diagram name="Page-1" id="WnkxHwBlzAl4rJDON2LJ">
    <mxGraphModel>
      <root>
        <mxCell id="0" />
        <mxCell id="1" parent="0" />
      </root>
    </mxGraphModel>
  </diagram>
</mxfile>
